<svg width="170" height="149" viewBox="0 0 170 149" fill="none" xmlns="http://www.w3.org/2000/svg">
<g clip-path="url(#clip0_1_127)">
<path d="M75.4209 46.0217C72.5682 26.1448 62.9971 0 33.1192 0C13.9096 0 -0.084021 17.3901 0.000379739 36.177C0.101661 58.0977 16.0365 68.8282 37.7613 72.3369C39.1117 72.5583 40.5803 72.7797 42.1164 72.9841C53.4092 74.5511 61.8155 84.3107 61.8155 95.8246C61.8155 116.417 46.6065 133.483 26.9242 136.192C23.8183 136.617 21.4551 139.206 21.4551 142.374V142.664C21.4551 146.462 24.7467 149.46 28.4772 148.966C54.4557 145.491 72.0449 126.245 75.4378 95.8417C75.4378 95.8417 78.2905 65.9327 75.4378 46.0558L75.4209 46.0217Z" fill="#F3F3F3"/>
<path d="M168.734 46.0217C165.881 26.1448 156.31 0 126.432 0C107.223 0 93.2122 17.3901 93.3135 36.177C93.4148 58.0977 109.35 68.8282 131.074 72.3369C132.425 72.5583 133.893 72.7797 135.429 72.9841C146.722 74.5511 155.129 84.3107 155.129 95.8246C155.129 116.417 139.92 133.483 120.237 136.192C117.131 136.617 114.768 139.206 114.768 142.374V142.664C114.768 146.462 118.06 149.46 121.79 148.966C147.769 145.491 165.358 126.245 168.751 95.8417C168.751 95.8417 171.604 65.9327 168.751 46.0558L168.734 46.0217Z" fill="#F3F3F3"/>
</g>
<defs>
<clipPath id="clip0_1_127">
<rect width="170" height="149" fill="white"/>
</clipPath>
</defs>
</svg>
